<?xml version="1.0" encoding="UTF-8"?>
<svg id="_Слой_2" data-name="Слой 2" xmlns="http://www.w3.org/2000/svg" viewBox="0 0 74.25 79.29">
  <defs>
    <style>
      .cls-1 {
        fill: #192337;
      }
    </style>
  </defs>
  <g id="_Слой_1-2" data-name="Слой 1">
    <g>
      <path class="cls-1" d="M48.27,69.45c-.76,6.36-6.6,10.7-12.88,9.7-5.07-.81-9.06-4.9-9.41-10.22l21.87-.02c.21,0,.45.29.42.54Z"/>
      <path class="cls-1" d="M72.13,59.17c-1.21-1.91-2.7-3.43-4.36-4.95-3.69-3.38-5.09-7.24-5.59-12.18-.35-3.39-.48-6.68-.62-10.08-.12-3.03-.51-5.9-1.43-8.77-1.86-5.77-5.92-10.32-11.5-12.71-1.73-.74-3.43-1.23-5.27-1.7l-.05-3.13c-.06-3.42-3.29-5.88-6.55-5.63-3.33.25-5.89,3.08-5.73,6.46.04.79,0,1.53-.06,2.33-2.44.62-4.66,1.28-6.87,2.45-5.18,2.74-8.79,7.51-10.32,13.17-.7,2.61-.96,5.15-1.06,7.86-.15,3.91-.31,7.71-.84,11.57-.59,4.34-2.59,8.06-5.87,10.89C3.21,57.15.7,60.69.02,64.37c-.13.69.36,1.18,1.06,1.18h72.24c2.46,0-.61-5.48-1.18-6.38ZM58.86,53.38c-.88-.99-2.66-3.23-4.02-7.66-2.18-7.09.18-8.54-1.57-15.95-.3-1.28-1.43-5.74-4.5-10.71-1.68-2.72-3.43-4.77-4.8-6.21,1.85.73,4.6,2.11,7.14,4.71,3.94,4.02,5.1,8.67,5.67,11.11,1.58,6.65-.36,9.07,1.45,17.61.33,1.56.87,3.71,2.22,6.13,1.43,2.55,3.15,4.3,4.36,5.36-1.52-.71-3.85-2.02-5.95-4.4Z"/>
    </g>
  </g>
</svg>