<?xml version="1.0" encoding="UTF-8"?>
<svg id="_Слой_2" data-name="Слой 2" xmlns="http://www.w3.org/2000/svg" viewBox="0 0 88.4 109.81">
  <defs>
    <style>
      .cls-1 {
        fill: #192337;
      }
    </style>
  </defs>
  <g id="_Слой_1-2" data-name="Слой 1">
    <g>
      <path class="cls-1" d="M23.32,19.4c-2.88.38-5.42.19-7.77-1.28L3.35,10.54c-.48-.65-.23-1.69.19-2.29.67-.94,1.66-1.29,2.79-1.39l18.22-1.55,24.19-1.92c1.58-.13,2.99.2,4.42.76l9.68,3.81,8.36,3.35c.34.14.68.51.64.8-.04.33-.29.62-.65.87l-30.19,4.06-17.67,2.34Z"/>
      <path class="cls-1" d="M66.76,106.88c-4.44.32-8.26-2.03-9.96-6-.76-1.79-1.07-3.62-.99-5.6.17-4.4,2.14-8.41,5.3-11.41,2-1.9,4.31-3.23,7.03-3.69,5.97-1,11.39,2.95,12.23,8.97.7,4.96-1.07,9.89-4.61,13.46-2.41,2.43-5.46,4.03-8.99,4.28ZM67.55,88.54c1.43-.59,2.93-.4,4.11.57.67-.38,1.21-.89,1.56-1.54-2.2-2.33-5.71-1.75-8.02.09-3.06,2.44-4.88,7.23-2.94,10.94.69-.45,1.18-.94,1.61-1.53-1.62-3.29.56-7.25,3.68-8.53ZM63.8,100.28c2.92,1.96,6.51.58,8.59-1.63,2.33-2.47,3.33-5.95,2.19-9.31-.67.35-1.22.79-1.74,1.3,1.16,3.17-.7,6.83-3.73,8.09-1.3.54-2.59.51-3.79-.19-.6.49-1.15,1.02-1.51,1.74ZM69.14,92.44c-.18-.08-.62-.12-.85-.07-.47.11-.82.61-.87.96-.07.47-.02,1.02.37,1.26.35.22.9.11,1.2-.14.72-.58.55-1.83.14-2.01Z"/>
      <path class="cls-1" d="M88.39,52.59h0s-.12-3.35-.12-3.35c0-.07,0-.14,0-.21l-.04-.77h0s-1.22-26.4-1.22-26.4c-.12-2.53-1.41-4.27-3.73-5.39l-.22-7.76c-.03-1.01-.85-1.46-1.67-1.7-2.69-.81-5.19-1.78-7.86-2.71L61.45.11c-1-.35-2.28.22-3.06.87-.93.77-1.69,1.66-2.55,2.59l4.66,1.78,10.62,4.03c1.52.58,2.91,1.22,4.42,2,.46-1.36,1.17-3.9,3.17-3.24.4.38.03,1.22-.2,1.67l-1.78,3.36c-.38.73-1.33,1.19-2.2,1.33l-21.29,3.34-29.67,3.92c-1.26.17-2.35.16-3.56.16-1.51,0-2.91-.36-4.22-1.12-1.64-.97-3.18-1.9-4.79-2.97L.92,11.13C-.34,10.7.04,15.19.09,15.87c.05.68.75,1.37,1.25,1.77,1.39,1.14,2.6,2.3,4.08,3.31l9.25,6.27c1.49,1.01,3.19,1.49,5.02,1.48,2.57,0,5.02-.33,7.6-.71l29.07-4.2,15.25-2.25c-.77,1.56-2.15,2.32-3.78,2.59l-16.58,2.72-15.4,2.38-12.33,1.94c-2.95.31-5.98.11-8.5-1.5l-7.93-5.05,2.49,38.96,1.98,29.98c.09,1.39.62,2.52,1.53,3.5l9.04,9.73c2.8,3.02,7.02,3.54,11.02,2.6l20.85-4.88c.86-.2,1.54-.52,1.78-1.44-4.22-5.62-2.59-14.11,1.8-19.24,3.04-3.7,7.45-6.47,12.52-5.97l1.27-13.25,1.25-13.31,1.98-23.8c.19-2.28.28-4.31.34-6.63,1.33-.34,2.67-.66,4.05-.87.83-.13,1.7.46,1.74,1.33l1.22,24.91c.09,1.76.15,3.28.15,5.03,0,.35-.47.87-.77.95-.68.18-1.28.03-1.87-.25l-3.57-1.72c-.22-.11-.83,0-1,.18-.15.15-.35.54-.36.78l-.29,4.77c-.02.41.25.73.6.89l5.55,2.57c.72.33,1.65.38,2.4.2l2.43-.57c1.4-.33,2.72-1.52,2.96-3.01.07-.42.27-2.28.21-3.45ZM25.63,93.1c-1.06.23-1.08-2.15-1.11-2.84l-2.42-52.17c-.03-.61.03-1.11.38-1.57.22-.29.94-.3,1.32-.18,1.23.38,1.02,3.25,1.07,4.67l1.03,27.69.15,4.28.16,4.69.15,4.19.14,4.03.13,4.4c.02.8-.09,2.61-1,2.8Z"/>
    </g>
  </g>
</svg>