<?xml version="1.0" encoding="UTF-8"?>
<svg id="_Слой_2" data-name="Слой 2" xmlns="http://www.w3.org/2000/svg" viewBox="0 0 76.17 92.47">
  <defs>
    <style>
      .cls-1 {
        fill: none;
      }

      .cls-2 {
        fill: #192337;
      }
    </style>
  </defs>
  <g id="_Слой_1-2" data-name="Слой 1">
    <g>
      <path class="cls-1" d="M25.17,15.9c0,2.36-.42,4.52-1.15,6.27v-11.55h.36c.51,1.55.79,3.36.79,5.28Z"/>
      <path class="cls-1" d="M66.69,73.92c-.13-.53-.62-.94-1.2-.94h-5.97c-.69,0-1.25.56-1.25,1.24v5.97c0,.69.56,1.25,1.25,1.25h5.97c.58,0,1.07-.4,1.2-.94.03-.1.05-.2.05-.31v-5.97c0-.1,0-.21-.05-.3ZM61.35,80.76h-1.13c-.69,0-1.25-.55-1.25-1.24v-4.6c0-.69.56-1.24,1.25-1.24h1.13c-.69,0-1.24.55-1.24,1.24v4.6c0,.69.55,1.24,1.24,1.24ZM66.69,60.12c-.13-.53-.62-.94-1.2-.94h-5.97c-.69,0-1.25.56-1.25,1.24v5.97c0,.69.56,1.25,1.25,1.25h5.97c.58,0,1.07-.4,1.2-.94.03-.1.05-.2.05-.31v-5.97c0-.1,0-.21-.05-.3ZM61.35,66.96h-1.13c-.69,0-1.25-.55-1.25-1.24v-4.6c0-.69.56-1.24,1.25-1.24h1.13c-.69,0-1.24.55-1.24,1.24v4.6c0,.69.55,1.24,1.24,1.24ZM66.69,46.32c-.13-.53-.62-.94-1.2-.94h-5.97c-.69,0-1.25.56-1.25,1.24v5.97c0,.69.56,1.25,1.25,1.25h5.97c.58,0,1.07-.4,1.2-.94.03-.1.05-.2.05-.31v-5.97c0-.1,0-.21-.05-.3ZM61.35,53.16h-1.13c-.69,0-1.25-.55-1.25-1.24v-4.6c0-.69.56-1.24,1.25-1.24h1.13c-.69,0-1.24.55-1.24,1.24v4.6c0,.69.55,1.24,1.24,1.24ZM52.89,73.92c-.13-.53-.62-.94-1.2-.94h-5.97c-.69,0-1.25.56-1.25,1.24v5.97c0,.69.56,1.25,1.25,1.25h5.97c.58,0,1.07-.4,1.2-.94.03-.1.05-.2.05-.31v-5.97c0-.1,0-.21-.05-.3ZM47.54,80.76h-1.13c-.69,0-1.25-.55-1.25-1.24v-4.6c0-.69.56-1.24,1.25-1.24h1.13c-.69,0-1.24.55-1.24,1.24v4.6c0,.69.55,1.24,1.24,1.24ZM52.89,60.12c-.13-.53-.62-.94-1.2-.94h-5.97c-.69,0-1.25.56-1.25,1.24v5.97c0,.69.56,1.25,1.25,1.25h5.97c.58,0,1.07-.4,1.2-.94.03-.1.05-.2.05-.31v-5.97c0-.1,0-.21-.05-.3ZM47.54,66.96h-1.13c-.69,0-1.25-.55-1.25-1.24v-4.6c0-.69.56-1.24,1.25-1.24h1.13c-.69,0-1.24.55-1.24,1.24v4.6c0,.69.55,1.24,1.24,1.24ZM52.89,46.32c-.13-.53-.62-.94-1.2-.94h-5.97c-.69,0-1.25.56-1.25,1.24v5.97c0,.69.56,1.25,1.25,1.25h5.97c.58,0,1.07-.4,1.2-.94.03-.1.05-.2.05-.31v-5.97c0-.1,0-.21-.05-.3ZM47.54,53.16h-1.13c-.69,0-1.25-.55-1.25-1.24v-4.6c0-.69.56-1.24,1.25-1.24h1.13c-.69,0-1.24.55-1.24,1.24v4.6c0,.69.55,1.24,1.24,1.24ZM39.09,73.92c-.13-.53-.62-.94-1.2-.94h-5.97c-.69,0-1.25.56-1.25,1.24v5.97c0,.69.56,1.25,1.25,1.25h5.97c.58,0,1.07-.4,1.2-.94.03-.1.05-.2.05-.31v-5.97c0-.1,0-.21-.05-.3ZM33.74,80.76h-1.13c-.69,0-1.25-.55-1.25-1.24v-4.6c0-.69.56-1.24,1.25-1.24h1.13c-.69,0-1.24.55-1.24,1.24v4.6c0,.69.55,1.24,1.24,1.24ZM39.09,60.12c-.13-.53-.62-.94-1.2-.94h-5.97c-.69,0-1.25.56-1.25,1.24v5.97c0,.69.56,1.25,1.25,1.25h5.97c.58,0,1.07-.4,1.2-.94.03-.1.05-.2.05-.31v-5.97c0-.1,0-.21-.05-.3ZM33.74,66.96h-1.13c-.69,0-1.25-.55-1.25-1.24v-4.6c0-.69.56-1.24,1.25-1.24h1.13c-.69,0-1.24.55-1.24,1.24v4.6c0,.69.55,1.24,1.24,1.24ZM39.09,46.32c-.13-.53-.62-.94-1.2-.94h-5.97c-.69,0-1.25.56-1.25,1.24v5.97c0,.69.56,1.25,1.25,1.25h5.97c.58,0,1.07-.4,1.2-.94.03-.1.05-.2.05-.31v-5.97c0-.1,0-.21-.05-.3ZM33.74,53.16h-1.13c-.69,0-1.25-.55-1.25-1.24v-4.6c0-.69.56-1.24,1.25-1.24h1.13c-.69,0-1.24.55-1.24,1.24v4.6c0,.69.55,1.24,1.24,1.24ZM25.29,73.92c-.13-.53-.62-.94-1.2-.94h-5.97c-.69,0-1.25.56-1.25,1.24v5.97c0,.69.56,1.25,1.25,1.25h5.97c.58,0,1.07-.4,1.2-.94.03-.1.05-.2.05-.31v-5.97c0-.1,0-.21-.05-.3ZM19.94,80.76h-1.13c-.69,0-1.25-.55-1.25-1.24v-4.6c0-.69.56-1.24,1.25-1.24h1.13c-.69,0-1.24.55-1.24,1.24v4.6c0,.69.55,1.24,1.24,1.24ZM25.29,60.12c-.13-.53-.62-.94-1.2-.94h-5.97c-.69,0-1.25.56-1.25,1.24v5.97c0,.69.56,1.25,1.25,1.25h5.97c.58,0,1.07-.4,1.2-.94.03-.1.05-.2.05-.31v-5.97c0-.1,0-.21-.05-.3ZM19.94,66.96h-1.13c-.69,0-1.25-.55-1.25-1.24v-4.6c0-.69.56-1.24,1.25-1.24h1.13c-.69,0-1.24.55-1.24,1.24v4.6c0,.69.55,1.24,1.24,1.24ZM25.29,46.32c-.13-.53-.62-.94-1.2-.94h-5.97c-.69,0-1.25.56-1.25,1.24v5.97c0,.69.56,1.25,1.25,1.25h5.97c.58,0,1.07-.4,1.2-.94.03-.1.05-.2.05-.31v-5.97c0-.1,0-.21-.05-.3ZM19.94,53.16h-1.13c-.69,0-1.25-.55-1.25-1.24v-4.6c0-.69.56-1.24,1.25-1.24h1.13c-.69,0-1.24.55-1.24,1.24v4.6c0,.69.55,1.24,1.24,1.24Z"/>
      <path class="cls-2" d="M7.16,35.24v46.18c0,6.07,4.97,11.04,11.04,11.04h46.93c6.07,0,11.04-4.97,11.04-11.04v-46.18H7.16ZM25.33,80.2c0,.11-.02.21-.05.31-.13.54-.62.94-1.2.94h-5.97c-.69,0-1.25-.56-1.25-1.25v-5.97c0-.68.56-1.24,1.25-1.24h5.97c.58,0,1.07.4,1.2.94.04.09.05.2.05.3v5.97ZM25.33,66.4c0,.11-.02.21-.05.31-.13.54-.62.94-1.2.94h-5.97c-.69,0-1.25-.56-1.25-1.25v-5.97c0-.68.56-1.24,1.25-1.24h5.97c.58,0,1.07.4,1.2.94.04.09.05.2.05.3v5.97ZM25.33,52.6c0,.11-.02.21-.05.31-.13.54-.62.94-1.2.94h-5.97c-.69,0-1.25-.56-1.25-1.25v-5.97c0-.68.56-1.24,1.25-1.24h5.97c.58,0,1.07.4,1.2.94.04.09.05.2.05.3v5.97ZM39.13,80.2c0,.11-.02.21-.05.31-.13.54-.62.94-1.2.94h-5.97c-.69,0-1.25-.56-1.25-1.25v-5.97c0-.68.56-1.24,1.25-1.24h5.97c.58,0,1.07.4,1.2.94.04.09.05.2.05.3v5.97ZM39.13,66.4c0,.11-.02.21-.05.31-.13.54-.62.94-1.2.94h-5.97c-.69,0-1.25-.56-1.25-1.25v-5.97c0-.68.56-1.24,1.25-1.24h5.97c.58,0,1.07.4,1.2.94.04.09.05.2.05.3v5.97ZM39.13,52.6c0,.11-.02.21-.05.31-.13.54-.62.94-1.2.94h-5.97c-.69,0-1.25-.56-1.25-1.25v-5.97c0-.68.56-1.24,1.25-1.24h5.97c.58,0,1.07.4,1.2.94.04.09.05.2.05.3v5.97ZM52.94,80.2c0,.11-.02.21-.05.31-.13.54-.62.94-1.2.94h-5.97c-.69,0-1.25-.56-1.25-1.25v-5.97c0-.68.56-1.24,1.25-1.24h5.97c.58,0,1.07.4,1.2.94.04.09.05.2.05.3v5.97ZM52.94,66.4c0,.11-.02.21-.05.31-.13.54-.62.94-1.2.94h-5.97c-.69,0-1.25-.56-1.25-1.25v-5.97c0-.68.56-1.24,1.25-1.24h5.97c.58,0,1.07.4,1.2.94.04.09.05.2.05.3v5.97ZM52.94,52.6c0,.11-.02.21-.05.31-.13.54-.62.94-1.2.94h-5.97c-.69,0-1.25-.56-1.25-1.25v-5.97c0-.68.56-1.24,1.25-1.24h5.97c.58,0,1.07.4,1.2.94.04.09.05.2.05.3v5.97ZM66.74,80.2c0,.11-.02.21-.05.31-.13.54-.62.94-1.2.94h-5.97c-.69,0-1.25-.56-1.25-1.25v-5.97c0-.68.56-1.24,1.25-1.24h5.97c.58,0,1.07.4,1.2.94.04.09.05.2.05.3v5.97ZM66.74,66.4c0,.11-.02.21-.05.31-.13.54-.62.94-1.2.94h-5.97c-.69,0-1.25-.56-1.25-1.25v-5.97c0-.68.56-1.24,1.25-1.24h5.97c.58,0,1.07.4,1.2.94.04.09.05.2.05.3v5.97ZM66.74,52.6c0,.11-.02.21-.05.31-.13.54-.62.94-1.2.94h-5.97c-.69,0-1.25-.56-1.25-1.25v-5.97c0-.68.56-1.24,1.25-1.24h5.97c.58,0,1.07.4,1.2.94.04.09.05.2.05.3v5.97Z"/>
      <path class="cls-1" d="M25.17,15.9c0,2.36-.42,4.52-1.15,6.27v-11.55h.36c.51,1.55.79,3.36.79,5.28Z"/>
      <path class="cls-1" d="M18.2,10.62h-2.31c-.5,0-.99.04-1.47.1"/>
      <path class="cls-1" d="M25.17,15.9c0,2.36-.42,4.52-1.15,6.27v-11.55h.36c.51,1.55.79,3.36.79,5.28Z"/>
      <path class="cls-1" d="M55.53,15.9c0,2.36-.42,4.52-1.15,6.27v-11.55h.36c.51,1.55.79,3.36.79,5.28Z"/>
      <path class="cls-2" d="M14.46,10.62s-.03.06-.04.1c-5.38.73-9.57,5.36-9.57,10.94v11.05l-4.85-1.46v-9.59c0-6.07,4.97-11.04,11.04-11.04h3.41Z"/>
      <path class="cls-2" d="M15.89,92.47h-4.85c-6.07,0-11.04-4.97-11.04-11.04v-48.41l4.85,1.51v46.9c0,6.07,4.97,11.04,11.04,11.04Z"/>
      <path class="cls-2" d="M76.17,21.66v11.74H7.16v-11.74c0-4.67,2.94-8.7,7.08-10.3,1.18-.46,2.46-.73,3.79-.74.06,0,.12,0,.17,0h5.82v11.55c.73-1.75,1.15-3.91,1.15-6.27,0-1.92-.29-3.73-.79-5.28-.1-.34-.22-.66-.36-.98t0,0h0s-5.84,0-5.84,0c.26-1.54.68-2.95,1.24-4.2,1.45-3.29,3.82-5.43,6.5-5.43,1.97,0,3.78,1.17,5.18,3.11,1.22,1.67,2.13,3.94,2.56,6.51.06.32.11.65.15.99.1.83.16,1.68.16,2.57,0,7.29-3.6,13.19-8.04,13.19-1.3,0-2.53-.51-3.62-1.4,1.39,1.92,3.2,3.07,5.16,3.07,4.44,0,8.04-5.9,8.04-13.19,0-1.48-.15-2.92-.42-4.24h19.3v11.55c.73-1.75,1.15-3.91,1.15-6.27,0-1.92-.29-3.73-.79-5.28-.1-.34-.22-.66-.36-.98v-.02h-6.76c.25-1.47.64-2.83,1.17-4.04,1.46-3.38,3.86-5.59,6.57-5.59,1.96,0,3.77,1.16,5.16,3.08,0,0,0,0,0,0,1.22,1.68,2.13,3.95,2.57,6.53.06.32.11.65.15.99h0c.06.47.1.95.12,1.43.03.38.04.75.04,1.14,0,7.29-3.6,13.19-8.04,13.19-1.1,0-2.14-.36-3.1-1.01-.18-.13-.37-.27-.54-.42.13.18.27.36.4.53,1.34,1.62,3,2.58,4.78,2.58,4.44,0,8.04-5.9,8.04-13.19,0-.62-.03-1.21-.07-1.8-.06-.79-.17-1.56-.32-2.3,0-.05-.02-.09-.03-.14h.61c6.07,0,11.04,4.97,11.04,11.04Z"/>
      <path class="cls-1" d="M18.2,10.62c-.06,0-.12,0-.17,0h0s.17,0,.17,0Z"/>
      <path class="cls-1" d="M52.26,25.36s-.09.07-.14.11c-.14-.17-.28-.35-.4-.53.17.16.36.29.54.42Z"/>
      <path class="cls-1" d="M25.29,46.32c-.13-.53-.62-.94-1.2-.94h-5.97c-.69,0-1.25.56-1.25,1.24v5.97c0,.69.56,1.25,1.25,1.25h5.97c.58,0,1.07-.4,1.2-.94.03-.1.05-.2.05-.31v-5.97c0-.1,0-.21-.05-.3ZM19.94,53.16h-1.13c-.69,0-1.25-.55-1.25-1.24v-4.6c0-.69.56-1.24,1.25-1.24h1.13c-.69,0-1.24.55-1.24,1.24v4.6c0,.69.55,1.24,1.24,1.24Z"/>
      <path class="cls-2" d="M19.94,53.16h-1.13c-.69,0-1.25-.55-1.25-1.24v-4.6c0-.69.56-1.24,1.25-1.24h1.13c-.69,0-1.24.55-1.24,1.24v4.6c0,.69.55,1.24,1.24,1.24Z"/>
      <path class="cls-1" d="M39.09,46.32c-.13-.53-.62-.94-1.2-.94h-5.97c-.69,0-1.25.56-1.25,1.24v5.97c0,.69.56,1.25,1.25,1.25h5.97c.58,0,1.07-.4,1.2-.94.03-.1.05-.2.05-.31v-5.97c0-.1,0-.21-.05-.3ZM33.74,53.16h-1.13c-.69,0-1.25-.55-1.25-1.24v-4.6c0-.69.56-1.24,1.25-1.24h1.13c-.69,0-1.24.55-1.24,1.24v4.6c0,.69.55,1.24,1.24,1.24Z"/>
      <path class="cls-2" d="M33.74,53.16h-1.13c-.69,0-1.25-.55-1.25-1.24v-4.6c0-.69.56-1.24,1.25-1.24h1.13c-.69,0-1.24.55-1.24,1.24v4.6c0,.69.55,1.24,1.24,1.24Z"/>
      <path class="cls-1" d="M25.29,60.12c-.13-.53-.62-.94-1.2-.94h-5.97c-.69,0-1.25.56-1.25,1.24v5.97c0,.69.56,1.25,1.25,1.25h5.97c.58,0,1.07-.4,1.2-.94.03-.1.05-.2.05-.31v-5.97c0-.1,0-.21-.05-.3ZM19.94,66.96h-1.13c-.69,0-1.25-.55-1.25-1.24v-4.6c0-.69.56-1.24,1.25-1.24h1.13c-.69,0-1.24.55-1.24,1.24v4.6c0,.69.55,1.24,1.24,1.24Z"/>
      <path class="cls-2" d="M19.94,66.96h-1.13c-.69,0-1.25-.55-1.25-1.24v-4.6c0-.69.56-1.24,1.25-1.24h1.13c-.69,0-1.24.55-1.24,1.24v4.6c0,.69.55,1.24,1.24,1.24Z"/>
      <path class="cls-1" d="M39.09,60.12c-.13-.53-.62-.94-1.2-.94h-5.97c-.69,0-1.25.56-1.25,1.24v5.97c0,.69.56,1.25,1.25,1.25h5.97c.58,0,1.07-.4,1.2-.94.03-.1.05-.2.05-.31v-5.97c0-.1,0-.21-.05-.3ZM33.74,66.96h-1.13c-.69,0-1.25-.55-1.25-1.24v-4.6c0-.69.56-1.24,1.25-1.24h1.13c-.69,0-1.24.55-1.24,1.24v4.6c0,.69.55,1.24,1.24,1.24Z"/>
      <path class="cls-2" d="M33.74,66.96h-1.13c-.69,0-1.25-.55-1.25-1.24v-4.6c0-.69.56-1.24,1.25-1.24h1.13c-.69,0-1.24.55-1.24,1.24v4.6c0,.69.55,1.24,1.24,1.24Z"/>
      <path class="cls-1" d="M52.89,46.32c-.13-.53-.62-.94-1.2-.94h-5.97c-.69,0-1.25.56-1.25,1.24v5.97c0,.69.56,1.25,1.25,1.25h5.97c.58,0,1.07-.4,1.2-.94.03-.1.05-.2.05-.31v-5.97c0-.1,0-.21-.05-.3ZM47.54,53.16h-1.13c-.69,0-1.25-.55-1.25-1.24v-4.6c0-.69.56-1.24,1.25-1.24h1.13c-.69,0-1.24.55-1.24,1.24v4.6c0,.69.55,1.24,1.24,1.24Z"/>
      <path class="cls-2" d="M47.54,53.16h-1.13c-.69,0-1.25-.55-1.25-1.24v-4.6c0-.69.56-1.24,1.25-1.24h1.13c-.69,0-1.24.55-1.24,1.24v4.6c0,.69.55,1.24,1.24,1.24Z"/>
      <path class="cls-1" d="M66.69,46.32c-.13-.53-.62-.94-1.2-.94h-5.97c-.69,0-1.25.56-1.25,1.24v5.97c0,.69.56,1.25,1.25,1.25h5.97c.58,0,1.07-.4,1.2-.94.03-.1.05-.2.05-.31v-5.97c0-.1,0-.21-.05-.3ZM61.35,53.16h-1.13c-.69,0-1.25-.55-1.25-1.24v-4.6c0-.69.56-1.24,1.25-1.24h1.13c-.69,0-1.24.55-1.24,1.24v4.6c0,.69.55,1.24,1.24,1.24Z"/>
      <path class="cls-2" d="M61.35,53.16h-1.13c-.69,0-1.25-.55-1.25-1.24v-4.6c0-.69.56-1.24,1.25-1.24h1.13c-.69,0-1.24.55-1.24,1.24v4.6c0,.69.55,1.24,1.24,1.24Z"/>
      <path class="cls-1" d="M52.89,60.12c-.13-.53-.62-.94-1.2-.94h-5.97c-.69,0-1.25.56-1.25,1.24v5.97c0,.69.56,1.25,1.25,1.25h5.97c.58,0,1.07-.4,1.2-.94.03-.1.05-.2.05-.31v-5.97c0-.1,0-.21-.05-.3ZM47.54,66.96h-1.13c-.69,0-1.25-.55-1.25-1.24v-4.6c0-.69.56-1.24,1.25-1.24h1.13c-.69,0-1.24.55-1.24,1.24v4.6c0,.69.55,1.24,1.24,1.24Z"/>
      <path class="cls-2" d="M47.54,66.96h-1.13c-.69,0-1.25-.55-1.25-1.24v-4.6c0-.69.56-1.24,1.25-1.24h1.13c-.69,0-1.24.55-1.24,1.24v4.6c0,.69.55,1.24,1.24,1.24Z"/>
      <path class="cls-1" d="M66.69,60.12c-.13-.53-.62-.94-1.2-.94h-5.97c-.69,0-1.25.56-1.25,1.24v5.97c0,.69.56,1.25,1.25,1.25h5.97c.58,0,1.07-.4,1.2-.94.03-.1.05-.2.05-.31v-5.97c0-.1,0-.21-.05-.3ZM61.35,66.96h-1.13c-.69,0-1.25-.55-1.25-1.24v-4.6c0-.69.56-1.24,1.25-1.24h1.13c-.69,0-1.24.55-1.24,1.24v4.6c0,.69.55,1.24,1.24,1.24Z"/>
      <path class="cls-2" d="M61.35,66.96h-1.13c-.69,0-1.25-.55-1.25-1.24v-4.6c0-.69.56-1.24,1.25-1.24h1.13c-.69,0-1.24.55-1.24,1.24v4.6c0,.69.55,1.24,1.24,1.24Z"/>
      <path class="cls-1" d="M25.29,73.92c-.13-.53-.62-.94-1.2-.94h-5.97c-.69,0-1.25.56-1.25,1.24v5.97c0,.69.56,1.25,1.25,1.25h5.97c.58,0,1.07-.4,1.2-.94.03-.1.05-.2.05-.31v-5.97c0-.1,0-.21-.05-.3ZM19.94,80.76h-1.13c-.69,0-1.25-.55-1.25-1.24v-4.6c0-.69.56-1.24,1.25-1.24h1.13c-.69,0-1.24.55-1.24,1.24v4.6c0,.69.55,1.24,1.24,1.24Z"/>
      <path class="cls-2" d="M19.94,80.76h-1.13c-.69,0-1.25-.55-1.25-1.24v-4.6c0-.69.56-1.24,1.25-1.24h1.13c-.69,0-1.24.55-1.24,1.24v4.6c0,.69.55,1.24,1.24,1.24Z"/>
      <path class="cls-1" d="M39.09,73.92c-.13-.53-.62-.94-1.2-.94h-5.97c-.69,0-1.25.56-1.25,1.24v5.97c0,.69.56,1.25,1.25,1.25h5.97c.58,0,1.07-.4,1.2-.94.03-.1.05-.2.05-.31v-5.97c0-.1,0-.21-.05-.3ZM33.74,80.76h-1.13c-.69,0-1.25-.55-1.25-1.24v-4.6c0-.69.56-1.24,1.25-1.24h1.13c-.69,0-1.24.55-1.24,1.24v4.6c0,.69.55,1.24,1.24,1.24Z"/>
      <path class="cls-2" d="M33.74,80.76h-1.13c-.69,0-1.25-.55-1.25-1.24v-4.6c0-.69.56-1.24,1.25-1.24h1.13c-.69,0-1.24.55-1.24,1.24v4.6c0,.69.55,1.24,1.24,1.24Z"/>
      <path class="cls-1" d="M52.89,73.92c-.13-.53-.62-.94-1.2-.94h-5.97c-.69,0-1.25.56-1.25,1.24v5.97c0,.69.56,1.25,1.25,1.25h5.97c.58,0,1.07-.4,1.2-.94.03-.1.05-.2.05-.31v-5.97c0-.1,0-.21-.05-.3ZM47.54,80.76h-1.13c-.69,0-1.25-.55-1.25-1.24v-4.6c0-.69.56-1.24,1.25-1.24h1.13c-.69,0-1.24.55-1.24,1.24v4.6c0,.69.55,1.24,1.24,1.24Z"/>
      <path class="cls-2" d="M47.54,80.76h-1.13c-.69,0-1.25-.55-1.25-1.24v-4.6c0-.69.56-1.24,1.25-1.24h1.13c-.69,0-1.24.55-1.24,1.24v4.6c0,.69.55,1.24,1.24,1.24Z"/>
      <path class="cls-1" d="M66.69,73.92c-.13-.53-.62-.94-1.2-.94h-5.97c-.69,0-1.25.56-1.25,1.24v5.97c0,.69.56,1.25,1.25,1.25h5.97c.58,0,1.07-.4,1.2-.94.03-.1.05-.2.05-.31v-5.97c0-.1,0-.21-.05-.3ZM61.35,80.76h-1.13c-.69,0-1.25-.55-1.25-1.24v-4.6c0-.69.56-1.24,1.25-1.24h1.13c-.69,0-1.24.55-1.24,1.24v4.6c0,.69.55,1.24,1.24,1.24Z"/>
      <path class="cls-2" d="M61.35,80.76h-1.13c-.69,0-1.25-.55-1.25-1.24v-4.6c0-.69.56-1.24,1.25-1.24h1.13c-.69,0-1.24.55-1.24,1.24v4.6c0,.69.55,1.24,1.24,1.24Z"/>
    </g>
  </g>
</svg>