<?xml version="1.0" encoding="UTF-8"?>
<svg id="_Слой_2" data-name="Слой 2" xmlns="http://www.w3.org/2000/svg" viewBox="0 0 105.66 89.6">
  <defs>
    <style>
      .cls-1 {
        fill: #192337;
      }
    </style>
  </defs>
  <g id="_Слой_1-2" data-name="Слой 1">
    <g>
      <path class="cls-1" d="M87.08,79.96l-46.3-.06c-5.26,0-9.74-4.46-9.76-9.66l-.06-18.67,9.21-.03,19.66-.04c3.84-.18,7.22-1.79,9.74-4.66,1.95-2.2,3.28-4.89,3.3-7.9l.04-9.8,23.05.08c2.58,0,5.01,1.07,6.76,2.9s2.93,4.26,2.93,6.86v48.66c0,1.71-2.48,2.37-3.65,1.71-1.11-.63-1.94-1.15-2.94-1.86l-9.73-6.92c-.6-.43-1.38-.6-2.25-.6ZM77.21,51.55l13.08-.05c1.25,0,2.27-.98,2.39-2.18s-.84-2.32-2.05-2.46c-.64-.07-1.25-.03-1.91.04l-13.63.02c-1.23,0-2.25.71-2.37,1.98s.74,2.51,2.08,2.65c.77.09,1.52,0,2.41,0ZM92.95,59.31c-.06-1.15-1.06-2.15-2.15-2.21-1.48-.07-2.83.04-4.32.04l-27.09.02h-12.74c-1.3,0-2.27,1.23-2.28,2.39s.92,2.36,2.23,2.43c2.25.12,4.45.05,6.74.03l12.21-.07,24.87-.07c1.43,0,2.63-1.05,2.54-2.57ZM68.24,69.75c.14-1.27-.88-2.62-2.23-2.62l-19.17.02c-1.49,0-2.56,1.32-2.5,2.55.08,1.53,1.23,2.41,2.72,2.4l18.39-.08c1.39,0,2.63-.77,2.79-2.27Z"/>
      <path class="cls-1" d="M39.81,47.26h-20.31c-.78.02-1.76.12-2.39.58l-11.05,8.13c-1.65,1.21-3.22,2.6-4.92,1.64C.58,57.29,0,56.61,0,55.72V9.36C0,7.21.68,5.25,2.04,3.6,3.69,1.59,6.24,0,8.98,0l50.5.02c4.72,0,8.85,4.17,8.86,8.84l.05,29.24c0,3.9-2.52,7.29-6.17,8.54-1.12.38-2.26.61-3.47.61h-18.94ZM43.46,17.05l5.23-.05,4.52-.03c1.29,0,2.48-.9,2.6-2.22s-.95-2.47-2.25-2.58c-.5-.04-.94.06-1.47.06l-36.67.05c-1.3,0-2.12,1.45-2.05,2.51.08,1.19.97,2.16,2.21,2.32,1.16.14,2.34.03,3.54.02l6.19-.04,18.16-.03ZM41.4,27.41l12.04-.1c1.11,0,2.06-.86,2.37-1.81.33-1.03-.2-1.95-1.01-2.52-.74-.51-1.52-.41-2.38-.41l-13.95.04-22.82.03c-1.35,0-2.33,1.02-2.43,2.24s.8,2.38,2.1,2.56c1.38.19,2.74.05,4.2.04l21.89-.07ZM35.26,33.03H15.41c-1.33.01-2.29,1.25-2.32,2.36s.92,2.41,2.23,2.41h19.59c1.33.01,2.36-1,2.47-2.19s-.73-2.58-2.12-2.58Z"/>
    </g>
  </g>
</svg>