<?xml version="1.0" encoding="UTF-8"?>
<svg id="_Слой_2" data-name="Слой 2" xmlns="http://www.w3.org/2000/svg" viewBox="0 0 73.47 82.57">
  <defs>
    <style>
      .cls-1 {
        fill: #192337;
      }
    </style>
  </defs>
  <g id="_Слой_1-2" data-name="Слой 1">
    <g>
      <path class="cls-1" d="M43.94,81.43c1.22-.12,2.06-1.01,2.41-2.02.81-2.35,1.25-4.61,1.71-7.11l2.45-.62c1.23,1.02,2.37,1.99,3.66,2.91.84.6,1.91.71,2.87.41,1.35-.41,2.59-.87,3.89-1.42.63-.27,1.23-.76,1.69-1.28l4.9-5.56c.48-.54.38-1.52.09-2.1l-2.85-5.78c.71-1.57,1.26-3.06,1.81-4.71.12-.36.53-.66.9-.76l4.22-1.08c.82-.21,1.78-1.01,1.78-1.95v-8.9c.01-.96-.81-1.72-1.64-2.06l-4.62-1.9-1.85-7.19,3.69-4.26c.69-.8.28-1.81-.19-2.56l-4.7-7.55c-.5-.8-1.44-1.32-2.4-.93l-4.44,1.78-1.63-1.85c0-2.45-.1-4.85-.4-7.29-.22-1.77-1.38-3-2.99-3.64l-6.92-2.73c-1.59-.63-3.35-.3-4.39,1.09l-3.16,4.23-.94-4.6c-.26-1.27-1.53-1.9-2.78-2.01l-10.31.64c-1.14.07-2.39.93-2.42,2.09l-.15,6.99c0,.42-.24.9-.58,1.1l-1.34.8-4.18-2.67c-.94-.6-2.46-.29-3.24.48l-5.23,5.1c-1.39,1.35-1.67,3.18-.65,4.86l4.13,6.82-.13,1.96c-.06.99-.4,1.6-1.39,1.91-2.21.7-4.4,1.39-6.56,2.27-1.28.52-2.22,1.61-2.02,3.08l1.23,8.84c.14.98,1.11,1.74,1.99,2.09,1.92.76,3.8,1.33,5.77,2,.4.13.72.44.88.82l1.92,4.55-3.71,7.32c-.43.86-.79,1.85-.14,2.72s1.35,1.63,2.06,2.42c1.02,1.14,1.92,2.3,2.79,3.56s2.34,1.62,3.76,1.2l5.99-1.78c.78.8,3.86,2.13,4.05,2.78l2.36,8.33c.45,1.58,1.85,2.44,3.47,2.28l11.49-1.11ZM40.78,65.13c-2.97-1.3-5.52-3.17-7.85-5.44-2.92-2.85-5.16-6.14-6.98-9.78-2.44-4.87-3.71-10.07-3.75-15.54-.05-7.34,1.56-14.37,7.32-19.29,4.4-3.76,10.43-4.74,15.78-2.47,3.41,1.45,6.51,3.57,9.01,6.33,5.97,6.59,9.35,15.38,9.87,24.2.41,6.96-1.65,14.66-6.82,19.52-4.74,4.45-10.7,5.05-16.59,2.47ZM20.31,65.52c-1.42-1.62-2.61-3.29-3.75-5.1l2.97-6.56c.28-.62.33-1.26.07-1.9l-3.11-7.74c-.25-.62-.89-1.14-1.53-1.31l-3.75-1.01c-.74-.2-1.1-.71-1.15-1.48l-.38-5.54c-.05-.69.23-1.19.89-1.46,1.09-.45,2.22-.81,3.39-1.14.8-.22,1.51-.67,1.81-1.55.77-2.26,1.24-4.65,1.42-7.07.12-1.67-.32-3.23-1.31-4.52l-1.45-1.88c-.12-.16-.06-.6.01-.75l1.75-2.9,5.67,4.69c-2.07,4.26-3.08,8.73-3.28,13.49-.66,11.84,3.98,23.12,12.58,31.21,2.35,2.21,5.01,3.97,7.91,5.36,1.48.71,2.96,1.19,4.52,1.57.59.14.72.68.67,1.18-.23,1.97-.51,3.82-1.13,5.75-1.45.13-2.79.18-4.23.07-.69-.05-1.53-.54-1.71-1.22l-1.4-5.2c-.12-.46-.32-.95-.72-1.24l-7.5-5.39c-.89-.64-1.8-.81-2.79-.24l-3.52,2.03c-.28.16-.69.15-.96-.16Z"/>
      <path class="cls-1" d="M38.44,59.6c5.21,3.2,11.63,3.54,16.41-.64s6.2-10.23,5.87-16.47c-.5-9.43-5.36-20.14-13.93-24.8-4.59-2.5-9.9-2.53-14.21.57-4.85,3.48-6.86,9.24-7,15.08-.16,6.58,1.57,12.97,5.11,18.5,2.01,3.14,4.58,5.8,7.75,7.75ZM45.28,55.12c-5.95-.35-10.78-6.34-12.69-11.47-1.64-4.39-2.19-9.6-.52-14.04.65-1.71,1.58-3.21,2.93-4.41,2.62-2.33,6.2-2.92,9.41-1.52,2.35,1.02,4.23,2.62,5.82,4.66,3.6,4.6,5.41,10.44,4.99,16.28-.16,2.14-.78,4.09-1.84,5.92-1.65,2.87-4.66,4.78-8.1,4.58Z"/>
      <path class="cls-1" d="M45.15,48.82c1.89.05,3.43-1.04,4.36-2.55,2.23-3.65,1.18-9.02-.94-12.54-1.39-2.31-3.95-4.75-6.85-4.5-2.66.23-4.66,2.45-4.79,5.06,3.29,1.36,5.1,4.62,5.32,7.94.05,1.73-.26,3.33-1.23,4.81,1.16.98,2.49,1.73,4.12,1.77Z"/>
    </g>
  </g>
</svg>