<?xml version="1.0" encoding="UTF-8"?>
<svg id="_Слой_2" data-name="Слой 2" xmlns="http://www.w3.org/2000/svg" viewBox="0 0 79.5 77.39">
  <defs>
    <style>
      .cls-1 {
        fill: #192337;
      }
    </style>
  </defs>
  <g id="_Слой_1-2" data-name="Слой 1">
    <g>
      <g>
        <path class="cls-1" d="M56.86,25.91l-3.72-.11-4.19-.15-4.28-.15-3.39-.14c-.1-.03-.31-.35-.19-.42l6.08-3.6-9.97-16.86c-1.3-2.2-3.16-3.6-5.6-4.46L51.66,0c1.29,0,2.41.23,3.54.78.74.46,1.41,1,1.87,1.78l5.67,9.56,6.61-3.87c.2.21.11.52-.03.82l-8.25,16.96-4.19-.13Z"/>
        <path class="cls-1" d="M29.33,28.06l-15.61-9.08,8.52-14.61c1.11-1.68,2.63-2.74,4.62-2.94,3.19-.4,6.19,1.18,7.69,4.01l4.11,6.91-9.34,15.72Z"/>
      </g>
      <g>
        <g>
          <path class="cls-1" d="M13.18,56.89c-1.32,2.3-1.57,4.53-1.1,7.21L1.82,46.46c-1.14-1.96-1.27-4.24-.12-6.2l4.68-7.94c-2.09-1.47-4.27-2.54-6.38-4.28l19.43-.06,9.1,16.39c.07.13.09.31.06.37-.03.09-.34.12-.47.06l-6.2-3.13-8.74,15.22Z"/>
          <path class="cls-1" d="M21.09,70.22c-2.34-.06-4.33-1.03-5.66-2.83-1.73-2.53-1.82-5.71-.34-8.41l4.03-7.13h17.19s.01,18.36.01,18.36h-15.24Z"/>
        </g>
        <g>
          <path class="cls-1" d="M61.38,70.2l-9.08.02c-.36,0-.64.27-.64.68v6.15c0,.09-.07.28-.08.32-.02.07-.33-.04-.42-.17l-4.76-7.38-5.65-8.79,3.83-6.29,6.01-9.96.36-.1c.1-.03.21.27.21.38l.07,2.93.08,3.88,19.68-.02c2.5,0,4.5-.96,6.58-2.41l-10.82,18.21c-1.04,1.75-3.38,2.56-5.36,2.56Z"/>
          <path class="cls-1" d="M79.5,42.54c-.54,3.62-3.38,6.24-6.94,6.69l-8.89.07-9.22-15.49,15.87-9.68,7.86,13.76c.83,1.44,1.34,2.89,1.32,4.65Z"/>
        </g>
      </g>
    </g>
  </g>
</svg>