<?xml version="1.0" encoding="UTF-8"?>
<svg id="_Слой_2" data-name="Слой 2" xmlns="http://www.w3.org/2000/svg" viewBox="0 0 91.71 94.18">
  <defs>
    <style>
      .cls-1 {
        fill: #192337;
      }
    </style>
  </defs>
  <g id="_Слой_1-2" data-name="Слой 1">
    <g>
      <g>
        <path class="cls-1" d="M80.01,93.95c-1.65-.36-2.77-1.22-3.77-2.42l-6.44-7.65-13.51-16.05c-.92-1.21-1.2-2.61-.69-4.03l-4.33-4.79c-2.11,1.54-4.22,2.73-6.55,3.74-2.32,1.13-4.67,1.88-7.21,2.33-2.45.52-4.83.8-7.34.62-10.21-.72-18.53-4.99-24.49-13.37C2.11,47.32.1,41.51,0,35.35c-.06-3.91.27-7.63,1.46-11.37,1.4-4.4,3.64-8.46,6.58-12.01,2.01-2.43,4.39-4.32,6.95-6.13,3.7-2.62,7.77-4.28,12.21-5.12,2.69-.51,5.24-.85,8-.66,2.97.2,5.84.68,8.66,1.65,7.67,2.62,14.02,7.52,17.84,14.73,2.7,5.08,4.09,10.69,3.82,16.44-.18,3.83-1.1,7.4-2.48,10.92-.6,1.49-1.24,2.84-1.99,4.24l-2.89,4.18,4.41,4.41c1.41-.14,2.7.11,3.86.89l9.3,8.92,4.6,4.48,9.09,8.73c1.83,1.76,2.64,4.05,2.13,6.53-1.11,5.39-6.08,8.99-11.55,7.79ZM42.61,54.75c3.74-2.1,7.03-4.88,9.65-8.27,3.04-3.91,4.72-8.55,5.35-13.44.91-7.1-1.17-14.62-6.07-19.88-4.32-4.63-10.23-7.24-16.54-7.63-4.33-.27-8.6.39-12.57,2.17-5.29,2.37-9.6,6.23-12.68,11.1-2.09,3.28-3.36,6.76-4.05,10.58-.65,3.6-.71,7.1.28,10.65.51,1.83,1.05,3.56,1.93,5.27,1.75,3.4,4.25,6.31,7.45,8.46,8.21,5.52,18.56,5.86,27.26.98ZM81.24,87.78c.27-.51.12-.78-.17-1.1l-20.05-21.38-1.53,1.1,10.27,11.83,9.09,10.2c.59.66,2.07-.06,2.39-.66Z"/>
        <path class="cls-1" d="M35.38,53.77c-10.1,2.55-20.46-1.73-24.54-11.51-.73-1.76-1.22-3.43-1.46-5.33-.43-3.46-.13-6.81.96-10.15,1.56-4.79,4.44-9.03,8.35-12.19,5.44-4.4,12.38-6.06,19.21-4.88,8.35,1.45,14.68,7.95,15.95,16.33.68,4.46.23,8.79-1.51,12.99-1.33,3.2-3.29,5.92-5.75,8.36-3.14,3.13-6.9,5.28-11.21,6.37ZM37.64,49.75c5.48-2.21,9.39-6.17,11.72-11.47,2.54-5.77,2.08-13.09-1.91-18.05-5.34-6.63-15.12-7.47-22.48-3.76-1.55.78-2.9,1.77-4.19,2.91-6.98,6.15-9.99,18.55-3.51,26.13,4.91,5.74,13.38,7.06,20.37,4.25Z"/>
      </g>
      <path class="cls-1" d="M39.84,16.75c1.09,1.03,6.22,6.07,6.38,13.94.15,7.19-3.9,14.01-10.47,17.8,8.22-2.95,13.36-10.59,12.76-18.27-.66-8.37-7.84-12.96-8.66-13.47Z"/>
    </g>
  </g>
</svg>