<?xml version="1.0" encoding="UTF-8"?>
<svg id="_Слой_2" data-name="Слой 2" xmlns="http://www.w3.org/2000/svg" viewBox="0 0 75.95 101.86">
  <defs>
    <style>
      .cls-1 {
        fill: #192337;
      }
    </style>
  </defs>
  <g id="_Слой_1-2" data-name="Слой 1">
    <g>
      <g>
        <circle class="cls-1" cx="55.79" cy="10.67" r="10.67"/>
        <path class="cls-1" d="M60.43,61.76l-8.81-.5c3.79,7.4,3.63,15.95.71,23.59-1.28,3.35-3.23,6.18-5.73,8.74-7.57,7.75-18.51,10.38-28.73,6.49-5.83-2.22-9.98-5.91-13.42-11.07C1.69,84.85.31,80.11.04,75.12c-.47-8.73,2.97-17.2,9.49-23.04,3.13-2.8,6.8-4.76,10.84-5.88.8-.22,1.48-.47,2.23-.78l11.38-15.51c.04-.32-.21-.66-.52-.77l-6.87-2.37-13.13,10.79c-2,1.64-4.97.83-6.46-1.13-1.33-1.73-1.7-4.79.17-6.31l16.88-13.69c1.12-.91,2.88-.76,4.19-.32l14.61,4.94,9.44,3.25c3.85,1.33,5.67,6.33,3.42,10.07-.83,1.38-1.63,2.69-2.57,4.03l-8.02,11.46c2.18.43,4.18.14,6.29.14l14.4-.03c2.23,0,4.07,1.37,5.06,3.23s1.3,3.81,1.02,5.94l-3.49,26.59,4.88,2.61c1.49.8,2.51,2.13,2.65,3.78s-.59,3.33-2.12,4.24c-1.29.76-2.95.87-4.39.27l-9.95-4.16c-2.21-.92-1.98-3.7-1.66-5.82l3.68-24c-.07-.55-.53-.85-1.06-.88ZM46.39,73.59c0-10.58-8.58-19.16-19.16-19.16s-19.16,8.58-19.16,19.16,8.58,19.16,19.16,19.16,19.16-8.58,19.16-19.16Z"/>
      </g>
      <path class="cls-1" d="M14.66,84.19c-5.41-6.21-5.35-15.51,0-21.52,5.13-5.78,13.86-7.1,20.62-3.01-6.7-2.56-14.32-.62-18.96,4.82-4.7,5.51-5.38,13.47-1.66,19.72Z"/>
    </g>
  </g>
</svg>